{"title":"The.Machinist.2004.720p.BRRip.XviD.AC3-PsychoLogic","uid":6572340,"size":2644959324,"categoryP":"video","categoryS":"hd___movies","magnet":"?xt=urn:btih:d889318c482643af338f59b8497b76fdcdb44ea7&amp;dn=The.Machinist.2004.720p.BRRip.XviD.AC3-PsychoLogic&amp;tr=udp%3A%2F%2Ftracker.openbittorrent.com%3A80&amp;tr=udp%3A%2F%2Fopen.demonii.com%3A1337&amp;tr=udp%3A%2F%2Ftracker.coppersurfer.tk%3A6969&amp;tr=udp%3A%2F%2Fexodus.desync.com%3A6969","seeders":0,"leechers":1,"uploader":"PsychoLogic","files":13,"time":1311984146,"description":"Release Information:\n\nThe.Machinist.2004.720p.BRRip.XviD.AC3-PsychoLogic\n\nSource                           : The.Machinist.2004.BluRay.1080p.DTS.AC3.x264.dxva-wsp\nSubtitles                        : Czech, English, French, German, Hebrew, Portuguese-BR, Spanish, Turkish, Vietnamese\nLanguage                         : English\nEncoded By                       : PsychoLogic\nSample Included                  : Yes\n\nMovie Information                : http://www.imdb.com/title/tt0361862/\nGenre                            : Drama | Mystery | Thriller\nDirector                         : Brad Anderson\nCast                             : Christian Bale, Jennifer Jason Leigh and Aitana SÃƒÂ¡nchez-GijÃƒÂ³n\nPlot                             : An industrial worker who hasn't slept in a year begins to doubt his own sanity. \n\nGeneral\nFormat                           : AVI\nFormat/Info                      : Audio Video Interleave\nFormat profile                   : OpenDML\nFile size                        : 2.44 GiB\nDuration                         : 1h 41mn\nOverall bit rate                 : 3 447 Kbps\nWriting application              : VirtualDubMod 1.5.10.2 (build 2540/release)\nWriting library                  : VirtualDubMod build 2540/release\n\nVideo\nID                               : 0\nFormat                           : MPEG-4 Visual\nFormat profile                   : Advanced Simple@L5\nFormat settings, BVOP            : 2\nFormat settings, QPel            : No\nFormat settings, GMC             : No warppoints\nFormat settings, Matrix          : Default (H.263)\nMuxing mode                      : Packed bitstream\nCodec ID                         : XVID\nCodec ID/Hint                    : XviD\nDuration                         : 1h 41mn\nBit rate                         : 2 988 Kbps\nWidth                            : 1 280 pixels\nHeight                           : 544 pixels\nDisplay aspect ratio             : 2.35:1\nFrame rate                       : 23.976 fps\nColor space                      : YUV\nChroma subsampling               : 4:2:0\nBit depth                        : 8 bits\nScan type                        : Progressive\nCompression mode                 : Lossy\nBits/(Pixel*Frame)               : 0.179\nStream size                      : 2.12 GiB (87%)\nWriting library                  : XviD 1.2.1 (UTC 2008-12-04)\n\nAudio\nID                               : 1\nFormat                           : AC-3\nFormat/Info                      : Audio Coding 3\nMode extension                   : CM (complete main)\nCodec ID                         : 2000\nDuration                         : 1h 41mn\nBit rate mode                    : Constant\nBit rate                         : 448 Kbps\nChannel(s)                       : 6 channels\nChannel positions                : Front: L C R, Side: L R, LFE\nSampling rate                    : 48.0 KHz\nBit depth                        : 16 bits\nCompression mode                 : Lossy\nStream size                      : 325 MiB (13%)\nAlignment                        : Split accross interleaves\nInterleave, duration             : 42 ms (1.00 video frame)\nInterleave, preload duration     : 500 ms\n\n","torrent":{"xt":"urn:btih:d889318c482643af338f59b8497b76fdcdb44ea7","amp;dn":"The.Machinist.2004.720p.BRRip.XviD.AC3-PsychoLogic","amp;tr":["udp%3A%2F%2Ftracker.openbittorrent.com%3A80","udp%3A%2F%2Fopen.demonii.com%3A1337","udp%3A%2F%2Ftracker.coppersurfer.tk%3A6969","udp%3A%2F%2Fexodus.desync.com%3A6969"],"infoHash":"d889318c482643af338f59b8497b76fdcdb44ea7","infoHashBuffer":{"type":"Buffer","data":[216,137,49,140,72,38,67,175,51,143,89,184,73,123,118,253,205,180,78,167]},"announce":[],"urlList":[]}}